<svg width="24" height="24" viewBox="0 0 24 24" fill="none" xmlns="http://www.w3.org/2000/svg">
<path fill-rule="evenodd" clip-rule="evenodd" d="M6 3.5H18C19.1046 3.5 20 4.39543 20 5.5V8.5C20 9.60457 19.1046 10.5 18 10.5H6C4.89543 10.5 4 9.60457 4 8.5V5.5C4 4.39543 4.89543 3.5 6 3.5ZM18 9C18.2761 9 18.5 8.77614 18.5 8.5V5.5C18.5 5.22386 18.2761 5 18 5H6C5.72386 5 5.5 5.22386 5.5 5.5V8.5C5.5 8.77614 5.72386 9 6 9H18Z" fill="#FFDAC0"/>
<path fill-rule="evenodd" clip-rule="evenodd" d="M6 13.5H18C19.1046 13.5 20 14.3954 20 15.5V18.5C20 19.6046 19.1046 20.5 18 20.5H6C4.89543 20.5 4 19.6046 4 18.5V15.5C4 14.3954 4.89543 13.5 6 13.5ZM18 19C18.2761 19 18.5 18.7761 18.5 18.5V15.5C18.5 15.2239 18.2761 15 18 15H6C5.72386 15 5.5 15.2239 5.5 15.5V18.5C5.5 18.7761 5.72386 19 6 19H18Z" fill="#FFDAC0"/>
</svg>
