<svg width="1632" height="1481" viewBox="0 0 1632 1481" fill="none" xmlns="http://www.w3.org/2000/svg">
<rect y="666" width="1512" height="815" fill="#F47820"/>
<path d="M1512 0H0V846.881C182.641 710.208 205.364 1057.72 652.568 697.284C826.953 556.733 879.418 959.33 1180.22 783.628C1481.02 607.927 1512 854.976 1512 846.881V0Z" fill="#EEEEEE"/>
<g style="mix-blend-mode:color-burn">
<path fill-rule="evenodd" clip-rule="evenodd" d="M606.362 506.422C509.643 639.397 604.673 655.687 666.811 647.21L720.36 643.828C722.548 738.342 714.673 853.128 674.474 877.39C607.716 917.682 744.478 967.334 783.883 913.205C823.289 859.076 839.051 764.248 799.646 689.363C790.585 672.144 781.026 655.701 771.652 640.588L771.837 640.576L858.627 647.21C1008.03 647.21 936.637 553.351 882.267 506.422C830.598 451.016 703.08 373.448 606.362 506.422ZM645.26 560.735C638.767 571.213 626.192 575.995 617.173 571.415C608.154 566.835 606.107 554.627 612.6 544.149C619.094 533.671 631.669 528.89 640.688 533.47C649.707 538.05 651.754 550.257 645.26 560.735ZM673.751 491.256C684.773 491.256 693.708 485.808 693.708 479.089C693.708 472.369 684.773 466.921 673.751 466.921C662.728 466.921 653.793 472.369 653.793 479.089C653.793 485.808 662.728 491.256 673.751 491.256ZM806.939 495.68C806.939 504.64 801.104 511.904 793.906 511.904C786.707 511.904 780.872 504.64 780.872 495.68C780.872 486.721 786.707 479.457 793.906 479.457C801.104 479.457 806.939 486.721 806.939 495.68ZM702.262 528.864C706.986 528.864 710.815 525.067 710.815 520.384C710.815 515.7 706.986 511.904 702.262 511.904C697.538 511.904 693.708 515.7 693.708 520.384C693.708 525.067 697.538 528.864 702.262 528.864ZM807.754 565.735C807.754 577.138 793.53 586.383 775.984 586.383C758.438 586.383 744.214 577.138 744.214 565.735C744.214 554.332 758.438 545.087 775.984 545.087C793.53 545.087 807.754 554.332 807.754 565.735ZM630.169 632.103C646.365 632.103 659.495 623.188 659.495 612.192C659.495 601.196 646.365 592.282 630.169 592.282C613.972 592.282 600.843 601.196 600.843 612.192C600.843 623.188 613.972 632.103 630.169 632.103ZM898.176 607.03C898.176 618.434 886.323 627.678 871.701 627.678C857.079 627.678 845.226 618.434 845.226 607.03C845.226 595.627 857.079 586.383 871.701 586.383C886.323 586.383 898.176 595.627 898.176 607.03Z" fill="#969696"/>
</g>
<g style="mix-blend-mode:color-burn">
<path fill-rule="evenodd" clip-rule="evenodd" d="M446.836 365.906C559.225 528.735 448.798 548.682 376.593 538.302L314.367 534.16C311.825 649.894 320.976 790.451 367.687 820.16C445.262 869.497 286.342 930.297 240.552 864.015C194.762 797.734 176.446 681.617 222.236 589.919C232.765 568.834 243.872 548.699 254.765 530.193L254.55 530.179L153.698 538.302C-19.9086 538.302 63.0489 423.371 126.229 365.906C186.269 298.061 334.447 203.077 446.836 365.906ZM401.634 432.413C409.18 445.244 423.793 451.098 434.273 445.49C444.753 439.882 447.132 424.934 439.586 412.103C432.04 399.273 417.428 393.418 406.948 399.027C396.468 404.635 394.089 419.583 401.634 432.413ZM368.528 347.335C355.72 347.335 345.337 340.664 345.337 332.436C345.337 324.207 355.72 317.537 368.528 317.537C381.337 317.537 391.72 324.207 391.72 332.436C391.72 340.664 381.337 347.335 368.528 347.335ZM213.761 352.753C213.761 363.724 220.541 372.618 228.906 372.618C237.271 372.618 244.052 363.724 244.052 352.753C244.052 341.781 237.271 332.887 228.906 332.887C220.541 332.887 213.761 341.781 213.761 352.753ZM335.398 393.387C329.908 393.387 325.458 388.737 325.458 383.002C325.458 377.267 329.908 372.618 335.398 372.618C340.887 372.618 345.337 377.267 345.337 383.002C345.337 388.737 340.887 393.387 335.398 393.387ZM212.814 438.535C212.814 452.499 229.342 463.819 249.731 463.819C270.12 463.819 286.648 452.499 286.648 438.535C286.648 424.572 270.12 413.252 249.731 413.252C229.342 413.252 212.814 424.572 212.814 438.535ZM419.171 519.803C400.351 519.803 385.094 508.888 385.094 495.423C385.094 481.958 400.351 471.042 419.171 471.042C437.992 471.042 453.249 481.958 453.249 495.423C453.249 508.888 437.992 519.803 419.171 519.803ZM107.742 489.102C107.742 503.065 121.516 514.385 138.506 514.385C155.497 514.385 169.271 503.065 169.271 489.102C169.271 475.138 155.497 463.819 138.506 463.819C121.516 463.819 107.742 475.138 107.742 489.102Z" fill="#969696"/>
</g>
<g style="mix-blend-mode:color-burn">
<path fill-rule="evenodd" clip-rule="evenodd" d="M1000.49 279.773C821.633 525.67 997.363 555.794 1112.27 540.119L1211.29 533.864C1215.34 708.64 1200.78 920.904 1126.44 965.769C1002.99 1040.28 1255.89 1132.09 1328.76 1032C1401.63 931.902 1430.78 756.547 1357.91 618.069C1341.15 586.227 1323.48 555.82 1306.14 527.873L1306.48 527.851L1466.98 540.119C1743.25 540.119 1611.23 366.555 1510.69 279.773C1415.15 177.315 1179.34 33.8752 1000.49 279.773ZM1072.42 380.209C1060.41 399.585 1037.16 408.427 1020.48 399.957C1003.8 391.488 1000.02 368.914 1012.02 349.538C1024.03 330.162 1047.29 321.32 1063.96 329.79C1080.64 338.26 1084.43 360.833 1072.42 380.209ZM1125.1 251.727C1145.49 251.727 1162.01 241.654 1162.01 229.227C1162.01 216.801 1145.49 206.727 1125.1 206.727C1104.72 206.727 1088.2 216.801 1088.2 229.227C1088.2 241.654 1104.72 251.727 1125.1 251.727ZM1371.4 259.909C1371.4 276.478 1360.6 289.909 1347.29 289.909C1333.98 289.909 1323.19 276.478 1323.19 259.909C1323.19 243.341 1333.98 229.909 1347.29 229.909C1360.6 229.909 1371.4 243.341 1371.4 259.909ZM1177.83 321.273C1186.56 321.273 1193.64 314.252 1193.64 305.591C1193.64 296.93 1186.56 289.909 1177.83 289.909C1169.09 289.909 1162.01 296.93 1162.01 305.591C1162.01 314.252 1169.09 321.273 1177.83 321.273ZM1372.9 389.455C1372.9 410.542 1346.6 427.636 1314.15 427.636C1281.71 427.636 1255.4 410.542 1255.4 389.455C1255.4 368.367 1281.71 351.273 1314.15 351.273C1346.6 351.273 1372.9 368.367 1372.9 389.455ZM1044.51 512.182C1074.46 512.182 1098.74 495.698 1098.74 475.364C1098.74 455.029 1074.46 438.545 1044.51 438.545C1014.56 438.545 990.281 455.029 990.281 475.364C990.281 495.698 1014.56 512.182 1044.51 512.182ZM1540.11 465.818C1540.11 486.905 1518.19 504 1491.15 504C1464.11 504 1442.2 486.905 1442.2 465.818C1442.2 444.731 1464.11 427.636 1491.15 427.636C1518.19 427.636 1540.11 444.731 1540.11 465.818Z" fill="#969696"/>
</g>
</svg>
