<svg width="30" height="30" viewBox="0 0 30 30" fill="none" xmlns="http://www.w3.org/2000/svg">
<rect width="30" height="30" rx="15" fill="#F47820"/>
<path d="M17.06 12.91H18.06C18.189 12.91 18.3127 12.8581 18.403 12.7659C18.4933 12.6737 18.5427 12.549 18.54 12.42V10.82C18.5409 10.5698 18.3494 10.3609 18.1 10.34C18.1 10.34 17.39 10.28 16.52 10.28C14.38 10.28 13.2 11.55 13.2 13.85V15.62H11.23C11.1019 15.6172 10.9782 15.6669 10.8875 15.7576C10.7969 15.8482 10.7472 15.9719 10.75 16.1V17.56C10.7472 17.6881 10.7969 17.8118 10.8875 17.9024C10.9782 17.9931 11.1019 18.0428 11.23 18.04H13.17V23.7H16.09V18.04H17.85C18.0917 18.0375 18.2955 17.8592 18.33 17.62L18.51 16.16C18.5283 16.0218 18.4844 15.8826 18.39 15.78C18.2984 15.6776 18.1674 15.6194 18.03 15.62H16.09V13.91C16.0897 13.3692 16.5195 12.9262 17.06 12.91Z" fill="white"/>
<path fill-rule="evenodd" clip-rule="evenodd" d="M5 14.91C5 9.43686 9.43686 5 14.91 5C17.5383 5 20.0589 6.04409 21.9174 7.90257C23.7759 9.76106 24.82 12.2817 24.82 14.91C24.82 20.3831 20.3831 24.82 14.91 24.82C9.43686 24.82 5 20.3831 5 14.91ZM23.32 14.91C23.32 10.2653 19.5547 6.5 14.91 6.5C10.2698 6.511 6.51099 10.2698 6.5 14.91C6.5 19.5547 10.2653 23.32 14.91 23.32C19.5547 23.32 23.32 19.5547 23.32 14.91Z" fill="white"/>
</svg>
