<svg width="30" height="30" viewBox="0 0 30 30" fill="none" xmlns="http://www.w3.org/2000/svg">
<rect width="30" height="30" rx="15" fill="#F47820"/>
<path fill-rule="evenodd" clip-rule="evenodd" d="M11 5H18.7C22.0137 5 24.7 7.68629 24.7 11V18.7C24.7 22.0137 22.0137 24.7 18.7 24.7H11C7.68629 24.7 5 22.0137 5 18.7V11C5 7.68629 7.68629 5 11 5ZM23.2 11C23.1945 8.517 21.183 6.5055 18.7 6.5H11C8.517 6.5055 6.5055 8.517 6.5 11V18.7C6.5055 21.183 8.517 23.1945 11 23.2H18.7C21.183 23.1945 23.1945 21.183 23.2 18.7V11Z" fill="white"/>
<path fill-rule="evenodd" clip-rule="evenodd" d="M10.55 14.85C10.5555 12.4775 12.4775 10.5555 14.85 10.55C17.2225 10.5555 19.1445 12.4775 19.15 14.85C19.15 17.2248 17.2248 19.15 14.85 19.15C12.4752 19.15 10.55 17.2248 10.55 14.85ZM17.65 14.85C17.65 13.3036 16.3964 12.05 14.85 12.05C13.3059 12.0555 12.0555 13.3059 12.05 14.85C12.05 16.3964 13.3036 17.65 14.85 17.65C16.3964 17.65 17.65 16.3964 17.65 14.85Z" fill="white"/>
<path d="M18.51 9.505C18.51 8.90577 18.9958 8.42 19.595 8.42C20.1942 8.42 20.68 8.90577 20.68 9.505C20.68 10.1042 20.1942 10.59 19.595 10.59C18.9958 10.59 18.51 10.1042 18.51 9.505Z" fill="white"/>
</svg>
