<svg width="383" height="504" viewBox="0 0 383 504" fill="none" xmlns="http://www.w3.org/2000/svg">
<g style="mix-blend-mode:color-burn">
<path fill-rule="evenodd" clip-rule="evenodd" d="M41.3616 73.4222C-55.3572 206.397 39.6729 222.687 101.811 214.21L155.36 210.828C157.548 305.342 149.673 420.128 109.474 444.39C42.7163 484.682 179.478 534.334 218.883 480.205C258.289 426.076 274.051 331.248 234.646 256.363C225.585 239.144 216.026 222.701 206.652 207.588L206.837 207.576L293.627 214.21C443.028 214.21 371.637 120.351 317.267 73.4222C265.598 18.0161 138.08 -59.5525 41.3616 73.4222ZM80.2604 127.735C73.7669 138.213 61.1916 142.995 52.1728 138.415C43.154 133.835 41.1069 121.627 47.6004 111.149C54.0939 100.671 66.6692 95.89 75.688 100.47C84.7068 105.05 86.7539 117.257 80.2604 127.735ZM108.751 58.256C119.773 58.256 128.708 52.8084 128.708 46.0886C128.708 39.3687 119.773 33.9212 108.751 33.9212C97.7281 33.9212 88.7926 39.3687 88.7926 46.0886C88.7926 52.8084 97.7281 58.256 108.751 58.256ZM241.939 62.6804C241.939 71.6403 236.104 78.9036 228.906 78.9036C221.707 78.9036 215.872 71.6403 215.872 62.6804C215.872 53.7206 221.707 46.4573 228.906 46.4573C236.104 46.4573 241.939 53.7206 241.939 62.6804ZM137.262 95.8642C141.986 95.8642 145.815 92.0674 145.815 87.3839C145.815 82.7004 141.986 78.9036 137.262 78.9036C132.538 78.9036 128.708 82.7004 128.708 87.3839C128.708 92.0674 132.538 95.8642 137.262 95.8642ZM242.754 132.735C242.754 144.138 228.53 153.383 210.984 153.383C193.438 153.383 179.214 144.138 179.214 132.735C179.214 121.332 193.438 112.087 210.984 112.087C228.53 112.087 242.754 121.332 242.754 132.735ZM65.1687 199.103C81.365 199.103 94.4947 190.188 94.4947 179.192C94.4947 168.196 81.365 159.282 65.1687 159.282C48.9724 159.282 35.8428 168.196 35.8428 179.192C35.8428 190.188 48.9724 199.103 65.1687 199.103ZM333.176 174.03C333.176 185.434 321.323 194.678 306.701 194.678C292.079 194.678 280.226 185.434 280.226 174.03C280.226 162.627 292.079 153.383 306.701 153.383C321.323 153.383 333.176 162.627 333.176 174.03Z" fill="#C90000"/>
</g>
</svg>
