<svg width="588" height="932" viewBox="0 0 588 932" fill="none" xmlns="http://www.w3.org/2000/svg">
<g style="mix-blend-mode:color-burn">
<path fill-rule="evenodd" clip-rule="evenodd" d="M76.4861 135.773C-102.367 381.67 73.3635 411.794 188.269 396.119L287.293 389.864C291.339 564.64 276.777 776.904 202.441 821.769C78.9913 896.276 331.891 988.093 404.76 887.998C477.63 787.902 506.778 612.547 433.908 474.069C417.153 442.227 399.477 411.82 382.142 383.873L382.484 383.851L542.978 396.119C819.251 396.119 687.234 222.555 586.692 135.773C491.145 33.3154 255.339 -110.125 76.4861 135.773ZM148.418 236.209C136.41 255.585 113.156 264.427 96.4784 255.957C79.8008 247.488 76.0152 224.914 88.0231 205.538C100.031 186.162 123.285 177.32 139.963 185.79C156.64 194.26 160.426 216.833 148.418 236.209ZM201.102 107.727C221.485 107.727 238.009 97.6537 238.009 85.2273C238.009 72.8009 221.485 62.7273 201.102 62.7273C180.719 62.7273 164.196 72.8009 164.196 85.2273C164.196 97.6537 180.719 107.727 201.102 107.727ZM447.396 115.909C447.396 132.478 436.605 145.909 423.294 145.909C409.982 145.909 399.192 132.478 399.192 115.909C399.192 99.3405 409.982 85.9091 423.294 85.9091C436.605 85.9091 447.396 99.3405 447.396 115.909ZM253.826 177.273C262.561 177.273 269.643 170.252 269.643 161.591C269.643 152.93 262.561 145.909 253.826 145.909C245.09 145.909 238.009 152.93 238.009 161.591C238.009 170.252 245.09 177.273 253.826 177.273ZM448.902 245.455C448.902 266.542 422.6 283.636 390.153 283.636C357.707 283.636 331.404 266.542 331.404 245.455C331.404 224.367 357.707 207.273 390.153 207.273C422.6 207.273 448.902 224.367 448.902 245.455ZM120.511 368.182C150.461 368.182 174.74 351.698 174.74 331.364C174.74 311.029 150.461 294.545 120.511 294.545C90.5603 294.545 66.2808 311.029 66.2808 331.364C66.2808 351.698 90.5603 368.182 120.511 368.182ZM616.111 321.818C616.111 342.905 594.192 360 567.153 360C540.115 360 518.196 342.905 518.196 321.818C518.196 300.731 540.115 283.636 567.153 283.636C594.192 283.636 616.111 300.731 616.111 321.818Z" fill="#C90000"/>
</g>
</svg>
